<?xml version="1.0" encoding="utf-8"?>
<!-- Generator: Adobe Illustrator 18.1.0, SVG Export Plug-In . SVG Version: 6.00 Build 0)  -->
<svg version="1.1" id="Capa_1" xmlns="http://www.w3.org/2000/svg" xmlns:xlink="http://www.w3.org/1999/xlink" x="0px" y="0px"
	 viewBox="-281 404.9 32 32" enable-background="new -281 404.9 32 32" xml:space="preserve">
<g>
	<g>
		<path fill="#FFFFFF" d="M-272.2,423.4c0.1,0.7,0.7,1.6,1.1,1.6c0.1,0,0.1,0,0.1,0c0.3,0.6,0.7,1.1,1.1,1.5h3.2
			c0.4-0.4,0.7-0.9,1-1.5c0.1,0,0.1,0.1,0.2,0.1c0.4,0,0.9-0.9,0.9-1.6c0-0.7-0.1-1.2-0.5-1.2c-0.1,0-0.1,0-0.2,0
			c0-2-0.5-4.6-3.5-4.6c-2.8,0-3.2,2.6-3,4.6c0,0-0.1,0-0.1,0C-272.3,422.1-272.3,422.7-272.2,423.4z"/>
		<path fill="#FFFFFF" d="M-255.4,421.2l0.2-1.2c0.1-0.4-0.2-0.8-0.6-0.8h-9c0.3,0.6,0.4,1.4,0.5,2.3c0.2,0.1,0.3,0.3,0.4,0.5h7.7
			C-255.8,421.9-255.4,421.6-255.4,421.2z"/>
		<path fill="#FFFFFF" d="M-256.9,426.5c0.4,0,0.7-0.3,0.8-0.7l0.2-1.1c0.1-0.4-0.2-0.7-0.6-0.7h-7.3c-0.2,0.7-0.7,1.5-1.3,1.7
			c0,0,0,0.1-0.1,0.1l0,0.6L-256.9,426.5L-256.9,426.5z"/>
		<path fill="#FFFFFF" d="M-277,426.1l-1.5-9.9c0-1.2,1-2.2,2.2-2.2h22.5c1.2,0,2.2,1,2.2,2.2l-1.3,9.8h2l1.3-9.8
			c0-2.3-1.9-4.2-4.2-4.2h-22.5c-2.3,0-4.2,1.9-4.2,4.2l1.5,9.9C-279,426.1-277,426.1-277,426.1z"/>
		<path fill="#FFFFFF" d="M-279.3,427.4c-0.4,0-0.8,0.2-1.1,0.5c-0.3,0.3-0.4,0.7-0.3,1.1l1.2,7.9h29.1l1.2-7.9
			c0.1-0.4-0.1-0.8-0.3-1.1c-0.3-0.3-0.7-0.5-1.1-0.5H-279.3L-279.3,427.4z"/>
		<path fill="#FFFFFF" d="M-255.2,410.4l0.4-1.5c0-0.2,0-0.3-0.1-0.4c-0.1-0.1-0.3-0.2-0.4-0.2h-20.2c-0.2,0-0.3,0.1-0.4,0.2
			c-0.1,0.1-0.1,0.3-0.1,0.5l0.4,1.5L-255.2,410.4L-255.2,410.4z"/>
		<path fill="#FFFFFF" d="M-257.2,407l0.3-1.6c0-0.2,0-0.3-0.1-0.4c-0.1-0.1-0.2-0.2-0.4-0.2h-16c-0.2,0-0.3,0.1-0.4,0.2
			c-0.1,0.1-0.1,0.3-0.1,0.4l0.3,1.6H-257.2z"/>
	</g>
</g>
</svg>
