<?xml version="1.0" encoding="utf-8"?>
<!-- Generator: Adobe Illustrator 18.1.0, SVG Export Plug-In . SVG Version: 6.00 Build 0)  -->
<svg version="1.1" id="Capa_1" xmlns="http://www.w3.org/2000/svg" xmlns:xlink="http://www.w3.org/1999/xlink" x="0px" y="0px"
	 viewBox="-279 403.6 35.3 35.3" enable-background="new -279 403.6 35.3 35.3" xml:space="preserve">
<g>
	<g>
		<path fill="#FFFFFF" d="M-261.4,420.8c-2.5,0-4.5,1.5-4.5,4.4c0,2.8,2,5.9,4.5,5.9c2.5,0,4.5-3.1,4.5-5.9
			C-256.8,422.3-258.9,420.8-261.4,420.8z"/>
		<path fill="#FFFFFF" d="M-244.4,434.6l-11.5-15.9v-7.5h0.4c2,0,3.6-1.6,3.6-3.6c0-2-1.6-3.6-3.6-3.6h-11.8c-2,0-3.6,1.6-3.6,3.6
			s1.6,3.6,3.6,3.6h0.4v7.5l-11.5,15.9c-0.7,0.9-0.8,1.9-0.4,2.7c0.4,0.8,1.3,1.2,2.4,1.2h30c1.1,0,2-0.4,2.4-1.2
			C-243.5,436.5-243.7,435.5-244.4,434.6z M-246.4,436.4h-6.3v-0.7c0-1.2-1-2.7-2.3-3.3l-2.9-1.4l-1.9,4l-1-2.6
			c-0.2,0-0.4,0.1-0.6,0.1s-0.4-0.1-0.6-0.1l-1,2.7l-2-4.1l-2.8,1.3c-1.3,0.6-2.3,2.1-2.3,3.3v0.7h-6.3c-0.4,0-0.5-0.1-0.6-0.1
			c0,0,0,0,0,0c0,0,0-0.2,0.2-0.5l11.9-16.5v-10.3h-2.5c-0.8,0-1.5-0.7-1.5-1.5s0.7-1.5,1.5-1.5h11.8c0.8,0,1.5,0.7,1.5,1.5
			s-0.7,1.5-1.5,1.5h-2.5v10.3l11.9,16.5c0.2,0.3,0.2,0.5,0.3,0.5C-245.8,436.4-246,436.4-246.4,436.4z"/>
	</g>
</g>
</svg>
