<?xml version="1.0" encoding="iso-8859-1"?>
<!-- Generator: Adobe Illustrator 16.0.0, SVG Export Plug-In . SVG Version: 6.00 Build 0)  -->
<!DOCTYPE svg PUBLIC "-//W3C//DTD SVG 1.1//EN" "http://www.w3.org/Graphics/SVG/1.1/DTD/svg11.dtd">
<svg version="1.1" id="Capa_1" xmlns="http://www.w3.org/2000/svg" xmlns:xlink="http://www.w3.org/1999/xlink" x="0px" y="0px"
	 width="35.273px" height="35.273px" viewBox="0 0 35.273 35.273" style="enable-background:new 0 0 35.273 35.273;"
	 xml:space="preserve">
<g>
	<g>
		<path d="M17.636,17.139c-2.493,0-4.514,1.51-4.514,4.355c0,2.844,2.021,5.945,4.514,5.945c2.494,0,4.514-3.102,4.514-5.945
			C22.151,18.649,20.13,17.139,17.636,17.139z"/>
		<path d="M34.638,30.998L23.155,15.056V7.537h0.377c1.979,0,3.588-1.61,3.588-3.59c0-1.979-1.609-3.588-3.588-3.588H11.74
			c-1.979,0-3.588,1.609-3.588,3.588s1.61,3.59,3.588,3.59h0.377v7.519L0.635,30.996c-0.665,0.924-0.816,1.9-0.415,2.686
			s1.283,1.232,2.42,1.232h29.993c1.137,0,2.02-0.447,2.42-1.232C35.453,32.899,35.304,31.92,34.638,30.998z M32.633,32.83h-6.259
			v-0.688c0-1.213-1.043-2.703-2.319-3.312l-2.928-1.392l-1.931,4.018l-0.957-2.602c-0.199,0.039-0.396,0.089-0.603,0.089
			s-0.404-0.05-0.603-0.089l-1.008,2.732l-1.97-4.104l-2.837,1.348c-1.276,0.604-2.32,2.099-2.32,3.308v0.688H2.64
			c-0.35,0-0.523-0.075-0.551-0.075c-0.002,0-0.003,0-0.004,0c-0.006-0.044,0.024-0.234,0.242-0.537l11.877-16.487V5.451h-2.463
			c-0.829,0-1.502-0.674-1.502-1.502s0.674-1.502,1.502-1.502h11.791c0.829,0,1.502,0.674,1.502,1.502s-0.674,1.502-1.502,1.502
			h-2.463v10.278l11.877,16.49c0.218,0.301,0.249,0.492,0.264,0.492C33.179,32.742,33.006,32.83,32.633,32.83z"/>
	</g>
</g>
<g>
</g>
<g>
</g>
<g>
</g>
<g>
</g>
<g>
</g>
<g>
</g>
<g>
</g>
<g>
</g>
<g>
</g>
<g>
</g>
<g>
</g>
<g>
</g>
<g>
</g>
<g>
</g>
<g>
</g>
</svg>
