<?xml version="1.0" encoding="utf-8"?>
<!-- Generator: Adobe Illustrator 18.1.0, SVG Export Plug-In . SVG Version: 6.00 Build 0)  -->
<svg version="1.1" id="Capa_1" xmlns="http://www.w3.org/2000/svg" xmlns:xlink="http://www.w3.org/1999/xlink" x="0px" y="0px"
	 viewBox="0 0 595.3 841.9" enable-background="new 0 0 595.3 841.9" xml:space="preserve">
<g>
	<g>
		<path fill="#FFFFFF" d="M595.3,644.2c0,20.5-16.7,37.2-37.2,37.2c-20.6,0-37.2-16.7-37.2-37.2s16.6-74.4,37.2-74.4
			C578.6,569.8,595.3,623.6,595.3,644.2z M539.5,365.1v167.4c0,10.3,8.3,18.6,18.6,18.6c10.3,0,18.6-8.3,18.6-18.6V365.1
			c0-10.3-8.3-18.6-18.6-18.6C547.8,346.5,539.5,354.9,539.5,365.1z M552,326.5L502.3,338v157.4c0,49.4-56.5,93-204.6,93
			S93,544.7,93,495.4V338l-49.8-11.5C17.8,320.6,0,298.3,0,272.1c0-26.2,17.8-48.5,43.3-54.4l241.8-55.8c4.3-1,8.4-1.4,12.6-1.4
			c4.1,0,8.2,0.4,12.3,1.4L552,217.7c25.5,5.9,43.3,28.2,43.3,54.4C595.3,298.3,577.5,320.6,552,326.5z M465.1,346.6l-154.9,35.7
			c-4.3,1-8.4,1.4-12.5,1.4s-8.3-0.4-12.3-1.4l-155.1-35.8v148.8c0,20.6,55.8,55.8,167.4,55.8s167.4-35.3,167.4-55.8V346.6z
			 M543.7,290.3c8.4-2,14.4-9.5,14.4-18.1c0-8.7-6-16.2-14.4-18.1l-241.8-55.8l-4.2-0.5l-4.2,0.5L51.6,254
			c-8.4,2-14.4,9.5-14.4,18.1c0,8.7,6,16.2,14.4,18.1l241.8,55.8l4.2,0.5l4.2-0.5L543.7,290.3z"/>
	</g>
</g>
</svg>
