<?xml version="1.0" encoding="utf-8"?>
<!-- Generator: Adobe Illustrator 18.1.0, SVG Export Plug-In . SVG Version: 6.00 Build 0)  -->
<svg version="1.1" id="Capa_1" xmlns="http://www.w3.org/2000/svg" xmlns:xlink="http://www.w3.org/1999/xlink" x="0px" y="0px"
	 viewBox="0 0 595.3 841.9" enable-background="new 0 0 595.3 841.9" xml:space="preserve">
<g>
	<path fill="#FFFFFF" d="M297.6,123.3C133.5,123.3,0,256.8,0,420.9s133.5,297.6,297.6,297.6s297.6-133.5,297.6-297.6
		S461.8,123.3,297.6,123.3z M297.6,664.5c-134.3,0-243.5-109.2-243.5-243.5s109.2-243.5,243.5-243.5s243.5,109.2,243.5,243.5
		S431.9,664.5,297.6,664.5z"/>
	<path fill="#FFFFFF" d="M297.6,249.6c-19.9,0-36.1,16.2-36.1,36.1c0,19.9,16.2,36.1,36.1,36.1s36.1-16.2,36.1-36.1
		C333.7,265.8,317.5,249.6,297.6,249.6z"/>
	<path fill="#FFFFFF" d="M297.6,375.8c-14.9,0-27.1,12.1-27.1,27.1v162.3c0,14.9,12.1,27.1,27.1,27.1s27.1-12.1,27.1-27.1V402.9
		C324.7,388,312.6,375.8,297.6,375.8z"/>
</g>
</svg>
