<?xml version="1.0" encoding="utf-8"?>
<!-- Generator: Adobe Illustrator 18.1.0, SVG Export Plug-In . SVG Version: 6.00 Build 0)  -->
<svg version="1.1" id="Layer_1" xmlns="http://www.w3.org/2000/svg" xmlns:xlink="http://www.w3.org/1999/xlink" x="0px" y="0px"
	 viewBox="0 0 595.3 841.9" enable-background="new 0 0 595.3 841.9" xml:space="preserve">
<g id="XMLID_350_">
	<g id="XMLID_351_">
		<path id="XMLID_352_" fill="#FFFFFF" d="M249.9,280.2h307c21.2,0,38.4-17.2,38.4-38.4c0-21.2-17.2-38.4-38.4-38.4h-307
			c-21.2,0-38.4,17.2-38.4,38.4C211.5,263.1,228.7,280.2,249.9,280.2z"/>
	</g>
	<g id="XMLID_439_">
		<path id="XMLID_440_" fill="#FFFFFF" d="M556.9,382.6h-307c-21.2,0-38.4,17.2-38.4,38.4s17.2,38.4,38.4,38.4h307
			c21.2,0,38.4-17.2,38.4-38.4C595.3,399.8,578.1,382.6,556.9,382.6z"/>
	</g>
	<g id="XMLID_441_">
		<path id="XMLID_443_" fill="#FFFFFF" d="M556.9,561.7h-307c-21.2,0-38.4,17.2-38.4,38.4s17.2,38.4,38.4,38.4h307
			c21.2,0,38.4-17.2,38.4-38.4S578.1,561.7,556.9,561.7z"/>
	</g>
	<g id="XMLID_444_">
		<path id="XMLID_445_" fill="#FFFFFF" d="M124.8,390.4l-25.6-3.7l-11.4-23.2c-3.2-6.5-9.9-10.7-17.2-10.7c-7.3,0-14,4.1-17.2,10.7
			L42,386.7l-25.6,3.7c-7.2,1-13.2,6.1-15.5,13.1S0.6,418,5.8,423.1l18.5,18l-4.4,25.5c-1.2,7.2,1.7,14.5,7.6,18.8
			c3.3,2.4,7.3,3.7,11.3,3.7c3.1,0,6.1-0.7,8.9-2.2l22.9-12l22.9,12c2.8,1.5,5.9,2.2,8.9,2.2c0,0,0,0,0.1,0
			c10.6,0,19.2-8.6,19.2-19.2c0-1.6-0.2-3.2-0.6-4.7l-4.1-24l18.5-18c5.2-5.1,7.1-12.7,4.9-19.7C138,396.5,132,391.5,124.8,390.4z"
			/>
	</g>
	<g id="XMLID_446_">
		<path id="XMLID_447_" fill="#FFFFFF" d="M124.8,211.3l-25.6-3.7l-11.4-23.2c-3.2-6.5-9.9-10.7-17.2-10.7c-7.3,0-14,4.1-17.2,10.7
			L42,207.6l-25.6,3.7c-7.2,1-13.2,6.1-15.5,13.1c-2.3,6.9-0.4,14.6,4.9,19.7l18.5,18l-4.4,25.5c-1.2,7.2,1.7,14.5,7.6,18.8
			c3.3,2.4,7.3,3.7,11.3,3.7c3.1,0,6.1-0.7,8.9-2.2l22.9-12l22.9,12c2.8,1.5,5.9,2.2,8.9,2.2c0,0,0,0,0.1,0
			c10.6,0,19.2-8.6,19.2-19.2c0-1.6-0.2-3.2-0.6-4.7l-4.1-24l18.5-18c5.2-5.1,7.1-12.7,4.9-19.7C138,217.4,132,212.4,124.8,211.3z"
			/>
	</g>
	<g id="XMLID_448_">
		<path id="XMLID_449_" fill="#FFFFFF" d="M124.8,569.5l-25.6-3.7l-11.4-23.2c-3.2-6.5-9.9-10.7-17.2-10.7c-7.3,0-14,4.1-17.2,10.7
			L42,565.8l-25.6,3.7c-7.2,1-13.2,6.1-15.5,13.1s-0.4,14.6,4.9,19.7l18.5,18l-4.4,25.5c-1.2,7.2,1.7,14.5,7.6,18.8
			c3.3,2.4,7.3,3.7,11.3,3.7c3.1,0,6.1-0.7,8.9-2.2l22.9-12l22.9,12c2.8,1.5,5.9,2.2,8.9,2.2c0,0,0,0,0.1,0
			c10.6,0,19.2-8.6,19.2-19.2c0-1.6-0.2-3.2-0.6-4.7l-4.1-24l18.5-18c5.2-5.1,7.1-12.7,4.9-19.7C138,575.6,132,570.5,124.8,569.5z"
			/>
	</g>
</g>
</svg>
